<svg t="1690806045756" class="icon" viewBox="0 0 1024 1024" version="1.1" xmlns="http://www.w3.org/2000/svg" p-id="12480" width="200" height="200"><path d="M800 960H224c-52.8 0-96-43.2-96-96V480c0-52.8 43.2-96 96-96h576c52.8 0 96 43.2 96 96v384c0 52.8-43.2 96-96 96zM224 448c-17.6 0-32 14.4-32 32v384c0 17.6 14.4 32 32 32h576c17.6 0 32-14.4 32-32V480c0-17.6-14.4-32-32-32H224z" fill="#333333" p-id="12481"></path><path d="M752 416c-17.6 0-32-14.4-32-32v-112c0-115.2-92.8-208-208-208S304 156.8 304 272v112c0 17.6-14.4 32-32 32s-32-14.4-32-32v-112c0-150.4 121.6-272 272-272s272 121.6 272 272v112c0 17.6-14.4 32-32 32z" fill="#333333" p-id="12482"></path></svg>
