<svg t="1690806250838" class="icon" viewBox="0 0 1024 1024" version="1.1" xmlns="http://www.w3.org/2000/svg" p-id="16513" width="200" height="200"><path d="M778.368 984.256H245.632c-40.896 0-74.944-46.912-74.944-103.232V569.6c0-57.856 34.048-103.232 74.944-103.232h532.736c40.896 0 74.944 46.912 74.944 103.232v311.36c-1.152 56.32-34.048 103.232-74.944 103.232zM245.632 560.32c-3.392 0-6.784 4.672-6.784 9.344v311.36c0 4.672 3.392 9.344 6.784 9.344h532.736c3.392 0 6.784-4.672 6.784-9.344V569.6c0-4.672-3.392-9.344-6.784-9.344H245.632z" fill="#2c2c2c" p-id="16514"></path><path d="M303.936 519.616a46.08 46.08 0 0 1-46.912-46.912V299.008a255.04 255.04 0 0 1 509.952 0 46.08 46.08 0 0 1-46.912 46.976 46.08 46.08 0 0 1-46.912-46.976A160.896 160.896 0 0 0 512 137.856a160.896 160.896 0 0 0-161.152 161.152v173.696a47.04 47.04 0 0 1-46.912 46.912z" fill="#2c2c2c" p-id="16515"></path></svg>
